<svg xmlns="http://www.w3.org/2000/svg" xmlns:xlink="http://www.w3.org/1999/xlink" viewBox="0,0,256,256" width="42px" height="42px"><g transform="translate(20.48,20.48) scale(0.84,0.84)"><g fill-opacity="0" fill="#1508e3" fill-rule="nonzero" stroke="none" stroke-width="1" stroke-linecap="butt" stroke-linejoin="miter" stroke-miterlimit="10" stroke-dasharray="" stroke-dashoffset="0" font-family="none" font-weight="none" font-size="none" text-anchor="none" style="mix-blend-mode: normal"><path d="M-24.38095,280.38095v-304.7619h304.7619v304.7619z" id="bgRectangle"></path></g><g fill="#ffffff" fill-rule="nonzero" stroke="none" stroke-width="1" stroke-linecap="butt" stroke-linejoin="miter" stroke-miterlimit="10" stroke-dasharray="" stroke-dashoffset="0" font-family="none" font-weight="none" font-size="none" text-anchor="none" style="mix-blend-mode: normal"><g transform="scale(4,4)"><path d="M17,2c-1.30078,0 -2.40234,0.83984 -2.81641,2h-2.18359c-2.20703,0 -4,1.79297 -4,4v48c0,2.20703 1.79297,4 4,4h41c1.65234,0 3,-1.34766 3,-3v-46c0,-1.65234 -1.34766,-3 -3,-3h-1v-1c0,-1.65234 -1.34766,-3 -3,-3h-19.18359c-0.41406,-1.16016 -1.51562,-2 -2.81641,-2zM17,4h10c0.55078,0 1,0.44922 1,1v37.35938l-4.81641,-3.53125c-0.70703,-0.51953 -1.65625,-0.51953 -2.36719,0l-4.81641,3.53125v-37.35937c0,-0.55078 0.44922,-1 1,-1zM12,6h2v36.35938c0,0.75781 0.41797,1.44141 1.09375,1.78125c0.67969,0.34375 1.48047,0.27734 2.08984,-0.16797l4.81641,-3.53516l4.81641,3.53516c0.35156,0.25781 0.76563,0.38672 1.18359,0.38672c0.30469,0 0.61719,-0.07031 0.90625,-0.21875c0.67578,-0.33984 1.09375,-1.02344 1.09375,-1.78125v-36.35937h19c0.55078,0 1,0.44922 1,1v39c-0.55078,0 -1,0.44531 -1,1v2c0,0.55469 0.44922,1 1,1v1c0,0.55078 -0.44922,1 -1,1h-37c-0.61719,0 -1.33984,0.22266 -2,0.63281v-2.63281c0.55078,0 1,-0.44531 1,-1v-2c0,-0.55469 -0.44922,-1 -1,-1v-38c0,-1.10156 0.89844,-2 2,-2zM52,10h1c0.55078,0 1,0.44922 1,1v46c0,0.55078 -0.44922,1 -1,1h-41c-1.10156,0 -2,-0.89844 -2,-2c0,-1.24219 1.39063,-2 2,-2h37c1.65234,0 3,-1.34766 3,-3zM33,20c-0.55078,0 -1,0.44531 -1,1c0,0.55469 0.44922,1 1,1h10c0.55078,0 1,-0.44531 1,-1c0,-0.55469 -0.44922,-1 -1,-1zM33,24c-0.55078,0 -1,0.44531 -1,1c0,0.55469 0.44922,1 1,1h4c0.55078,0 1,-0.44531 1,-1c0,-0.55469 -0.44922,-1 -1,-1zM33,28c-0.55078,0 -1,0.44531 -1,1c0,0.55469 0.44922,1 1,1h7c0.55078,0 1,-0.44531 1,-1c0,-0.55469 -0.44922,-1 -1,-1zM15,46c-0.55078,0 -1,0.44531 -1,1v2c0,0.55469 0.44922,1 1,1c0.55078,0 1,-0.44531 1,-1v-2c0,-0.55469 -0.44922,-1 -1,-1zM20,46c-0.55078,0 -1,0.44531 -1,1v2c0,0.55469 0.44922,1 1,1c0.55078,0 1,-0.44531 1,-1v-2c0,-0.55469 -0.44922,-1 -1,-1zM25,46c-0.55078,0 -1,0.44531 -1,1v2c0,0.55469 0.44922,1 1,1c0.55078,0 1,-0.44531 1,-1v-2c0,-0.55469 -0.44922,-1 -1,-1zM30,46c-0.55078,0 -1,0.44531 -1,1v2c0,0.55469 0.44922,1 1,1c0.55078,0 1,-0.44531 1,-1v-2c0,-0.55469 -0.44922,-1 -1,-1zM35,46c-0.55078,0 -1,0.44531 -1,1v2c0,0.55469 0.44922,1 1,1c0.55078,0 1,-0.44531 1,-1v-2c0,-0.55469 -0.44922,-1 -1,-1zM40,46c-0.55078,0 -1,0.44531 -1,1v2c0,0.55469 0.44922,1 1,1c0.55078,0 1,-0.44531 1,-1v-2c0,-0.55469 -0.44922,-1 -1,-1zM45,46c-0.55078,0 -1,0.44531 -1,1v2c0,0.55469 0.44922,1 1,1c0.55078,0 1,-0.44531 1,-1v-2c0,-0.55469 -0.44922,-1 -1,-1z"></path></g></g></g></svg>