<svg xmlns="http://www.w3.org/2000/svg" xmlns:xlink="http://www.w3.org/1999/xlink" viewBox="0,0,256,256" width="42px" height="42px"><g transform="translate(33.28,33.28) scale(0.74,0.74)"><g fill-opacity="0" fill="#1508e3" fill-rule="nonzero" stroke="none" stroke-width="1" stroke-linecap="butt" stroke-linejoin="miter" stroke-miterlimit="10" stroke-dasharray="" stroke-dashoffset="0" font-family="none" font-weight="none" font-size="none" text-anchor="none" style="mix-blend-mode: normal"><path d="M-44.97297,300.97297v-345.94595h345.94595v345.94595z" id="bgRectangle"></path></g><g fill="#ffffff" fill-rule="nonzero" stroke="none" stroke-width="1" stroke-linecap="butt" stroke-linejoin="miter" stroke-miterlimit="10" stroke-dasharray="" stroke-dashoffset="0" font-family="none" font-weight="none" font-size="none" text-anchor="none" style="mix-blend-mode: normal"><g transform="scale(4,4)"><path d="M26.07031,4c-1.00391,0 -1.94141,0.5 -2.49609,1.33594l-3.10937,4.66406h-17.46484c-1.65625,0 -3,1.34375 -3,3v9.80078c0,1.625 0.77344,3.06641 2,3.98438v25.21484c0,2.21094 1.78906,4 4,4h52c2.21094,0 4,-1.78906 4,-4v-25.21484c1.22656,-0.91797 2,-2.35937 2,-3.98437v-9.80078c0,-1.65625 -1.34375,-3 -3,-3h-17.46484l-3.10937,-4.66406c-0.55469,-0.83594 -1.49219,-1.33594 -2.49609,-1.33594zM26.07031,6h11.85938c0.33594,0 0.64453,0.16797 0.83203,0.44531l2.36719,3.55469h-18.25781l2.36719,-3.55469c0.1875,-0.27734 0.49609,-0.44531 0.83203,-0.44531zM3,12h58c0.55078,0 1,0.44922 1,1v1c-0.55078,0 -1,0.44531 -1,1v2c0,0.55469 0.44922,1 1,1v4.80078c0,1.41406 -0.96094,2.61719 -2.33984,2.92969l-23.66016,5.33984v-0.07031c0,-1.10156 -0.89844,-2 -2,-2h-4c-1.10156,0 -2,0.89844 -2,2v0.07031l-23.66016,-5.33984c-1.37891,-0.3125 -2.33984,-1.51562 -2.33984,-2.92969v-4.80078c0.55078,0 1,-0.44531 1,-1v-2c0,-0.55469 -0.44922,-1 -1,-1v-1c0,-0.55078 0.44922,-1 1,-1zM7,14c-0.55078,0 -1,0.44531 -1,1v2c0,0.55469 0.44922,1 1,1c0.55078,0 1,-0.44531 1,-1v-2c0,-0.55469 -0.44922,-1 -1,-1zM12,14c-0.55078,0 -1,0.44531 -1,1v2c0,0.55469 0.44922,1 1,1c0.55078,0 1,-0.44531 1,-1v-2c0,-0.55469 -0.44922,-1 -1,-1zM17,14c-0.55078,0 -1,0.44531 -1,1v2c0,0.55469 0.44922,1 1,1c0.55078,0 1,-0.44531 1,-1v-2c0,-0.55469 -0.44922,-1 -1,-1zM22,14c-0.55078,0 -1,0.44531 -1,1v2c0,0.55469 0.44922,1 1,1c0.55078,0 1,-0.44531 1,-1v-2c0,-0.55469 -0.44922,-1 -1,-1zM27,14c-0.55078,0 -1,0.44531 -1,1v2c0,0.55469 0.44922,1 1,1c0.55078,0 1,-0.44531 1,-1v-2c0,-0.55469 -0.44922,-1 -1,-1zM32,14c-0.55078,0 -1,0.44531 -1,1v2c0,0.55469 0.44922,1 1,1c0.55078,0 1,-0.44531 1,-1v-2c0,-0.55469 -0.44922,-1 -1,-1zM37,14c-0.55078,0 -1,0.44531 -1,1v2c0,0.55469 0.44922,1 1,1c0.55078,0 1,-0.44531 1,-1v-2c0,-0.55469 -0.44922,-1 -1,-1zM42,14c-0.55078,0 -1,0.44531 -1,1v2c0,0.55469 0.44922,1 1,1c0.55078,0 1,-0.44531 1,-1v-2c0,-0.55469 -0.44922,-1 -1,-1zM47,14c-0.55078,0 -1,0.44531 -1,1v2c0,0.55469 0.44922,1 1,1c0.55078,0 1,-0.44531 1,-1v-2c0,-0.55469 -0.44922,-1 -1,-1zM52,14c-0.55078,0 -1,0.44531 -1,1v2c0,0.55469 0.44922,1 1,1c0.55078,0 1,-0.44531 1,-1v-2c0,-0.55469 -0.44922,-1 -1,-1zM57,14c-0.55078,0 -1,0.44531 -1,1v2c0,0.55469 0.44922,1 1,1c0.55078,0 1,-0.44531 1,-1v-2c0,-0.55469 -0.44922,-1 -1,-1zM60,27.70313v24.29688c0,1.10547 -0.89453,2 -2,2h-52c-1.10547,0 -2,-0.89453 -2,-2v-24.29687l24,5.42188v3.875c0,1.10547 0.89453,2 2,2h4c1.10547,0 2,-0.89453 2,-2v-3.87891zM30,31h4v6h-4zM7,48c-0.55078,0 -1,0.44531 -1,1c0,0.55469 0.44922,1 1,1h42c0.55078,0 1,-0.44531 1,-1c0,-0.55469 -0.44922,-1 -1,-1zM53,48c-0.55078,0 -1,0.44531 -1,1c0,0.55469 0.44922,1 1,1h4c0.55078,0 1,-0.44531 1,-1c0,-0.55469 -0.44922,-1 -1,-1z"></path></g></g></g></svg>