<svg xmlns="http://www.w3.org/2000/svg" xmlns:xlink="http://www.w3.org/1999/xlink" viewBox="0,0,256,256" width="42px" height="42px"><g transform="translate(29.44,29.44) scale(0.77,0.77)"><g fill-opacity="0" fill="#1508e3" fill-rule="nonzero" stroke="none" stroke-width="1" stroke-linecap="butt" stroke-linejoin="miter" stroke-miterlimit="10" stroke-dasharray="" stroke-dashoffset="0" font-family="none" font-weight="none" font-size="none" text-anchor="none" style="mix-blend-mode: normal"><path d="M-38.23377,294.23377v-332.46753h332.46753v332.46753z" id="bgRectangle"></path></g><g fill="#ffffff" fill-rule="nonzero" stroke="none" stroke-width="1" stroke-linecap="butt" stroke-linejoin="miter" stroke-miterlimit="10" stroke-dasharray="" stroke-dashoffset="0" font-family="none" font-weight="none" font-size="none" text-anchor="none" style="mix-blend-mode: normal"><g transform="scale(4,4)"><path d="M32.04297,0c-0.307,-0.006 -0.60578,0.13491 -0.80078,0.37891c-6.945,8.742 -11.98066,18.70777 -14.97266,29.63477c-2.293,8.897 -3.84152,19.97573 -4.60351,32.92773c-0.017,0.274 0.08148,0.54414 0.27148,0.74414c0.188,0.201 0.45156,0.31445 0.72656,0.31445h0.27149c0.377,0 0.71963,-0.21187 0.89063,-0.54687c4.778,-9.409 12.15414,-17.54356 21.24414,-23.47656l0.62695,-0.32812c1.117,-0.594 1.68114,-0.87891 2.24414,-0.87891c0.274,0 0.74356,0.4073 1.35156,1.1543c3.75,5.387 6.92627,11.15313 10.94727,18.45313c0.012,0.021 0.04559,0.07666 0.05859,0.09766c0.185,0.284 0.50084,0.45508 0.83984,0.45508h0.25781c0.281,0 0.55123,-0.12013 0.74023,-0.32813c0.189,-0.209 0.28091,-0.48658 0.25391,-0.76758c-0.879,-9.206 -2.10766,-19.88609 -5.59766,-30.12109c-3.324,-10.04 -8.15384,-19.48359 -13.96484,-27.30859c-0.185,-0.25 -0.47416,-0.3993 -0.78516,-0.4043zM31.99805,2.6582c5.34,7.442 9.78744,16.29441 12.89844,25.69141c2.898,8.5 4.21322,17.36144 5.07422,25.39844c-3.148,-5.677 -5.88908,-10.44444 -9.08008,-15.02344c-0.948,-1.174 -1.81222,-1.95508 -2.94922,-1.95508c-1.087,0 -1.96678,0.46933 -3.17578,1.11133l-0.70312,0.37109c-5.531,3.607 -10.41072,7.98564 -14.51172,12.93164c0.311,-3.443 0.71303,-6.67477 1.20703,-9.63477c0.091,-0.545 -0.27631,-1.06039 -0.82031,-1.15039c-0.555,-0.098 -1.06134,0.27631 -1.15234,0.82031c-0.646,3.868 -1.1377,8.18713 -1.4707,12.82813c-1.21,1.644 -2.35463,3.33108 -3.39062,5.08008c0.82,-11.141 2.25825,-20.75061 4.28125,-28.59961c2.797,-10.222 7.43497,-19.59214 13.79297,-27.86914zM43.48633,4.81055c-0.25588,0.0045 -0.51112,0.10619 -0.70312,0.30469l-1.22852,1.27344c-0.383,0.397 -0.37161,1.03006 0.02539,1.41406c0.194,0.188 0.44336,0.2793 0.69336,0.2793c0.262,0 0.5237,-0.10169 0.7207,-0.30469l1.22852,-1.27344c0.383,-0.397 0.37161,-1.03006 -0.02539,-1.41406c-0.1985,-0.1915 -0.45506,-0.2838 -0.71094,-0.2793zM46.6582,9.11719c-0.12805,0.02144 -0.25484,0.06883 -0.37109,0.14258l-1.48242,0.94336c-0.467,0.296 -0.60559,0.91291 -0.30859,1.37891c0.19,0.3 0.5147,0.46484 0.8457,0.46484c0.184,0 0.36916,-0.05125 0.53516,-0.15625l1.48242,-0.94336c0.467,-0.296 0.60459,-0.91291 0.30859,-1.37891c-0.222,-0.35025 -0.62562,-0.51548 -1.00977,-0.45117zM32.04492,12.60156c-0.234,0 -0.46805,0.14922 -0.49805,0.44922l-1.15234,11.52539c-0.023,0.233 -0.2055,0.41926 -0.4375,0.44727l-4.31055,0.51367c-0.497,0.059 -0.60725,0.73127 -0.15625,0.94727l3.57031,1.71094c0.197,0.094 0.3103,0.30744 0.2793,0.52344l-0.46094,3.2207c-0.047,0.332 0.22,0.57227 0.5,0.57227c0.122,0 0.24466,-0.04544 0.34766,-0.14844l1.96484,-1.96484c0.098,-0.098 0.22747,-0.14453 0.35547,-0.14453c0.128,0 0.25552,0.04753 0.35352,0.14453l2.05859,2.05859c0.102,0.102 0.22761,0.14844 0.34961,0.14844c0.271,0 0.52895,-0.22197 0.50195,-0.54297l-0.28516,-3.37109c-0.017,-0.203 0.08948,-0.39628 0.27148,-0.48828l3.38281,-1.71484c0.442,-0.223 0.32403,-0.88241 -0.16797,-0.94141l-4.37891,-0.52344c-0.233,-0.028 -0.4145,-0.21427 -0.4375,-0.44727l-1.15234,-11.52539c-0.03,-0.3 -0.26405,-0.44922 -0.49805,-0.44922zM49.37305,13.93555c-0.12959,-0.00925 -0.26378,0.00653 -0.39453,0.05078l-1.67578,0.57227c-0.522,0.179 -0.80009,0.74753 -0.62109,1.26953c0.142,0.415 0.52931,0.67773 0.94531,0.67773c0.107,0 0.21527,-0.01869 0.32227,-0.05469l1.67773,-0.57031c0.522,-0.179 0.80009,-0.74848 0.62109,-1.27148c-0.13425,-0.39225 -0.48622,-0.64608 -0.875,-0.67383zM50.73047,19.09375l-1.79297,0.17578c-0.549,0.054 -0.95048,0.5418 -0.89648,1.0918c0.051,0.517 0.48514,0.90234 0.99414,0.90234c0.032,0 0.06561,-0.00091 0.09961,-0.00391l1.79102,-0.17773c0.55,-0.054 0.95049,-0.5418 0.89648,-1.0918c-0.055,-0.549 -0.5318,-0.94548 -1.0918,-0.89648zM21.17773,33.00391c-0.3847,0.05658 -0.72117,0.33703 -0.82617,0.73828c-0.251,0.965 -0.48789,1.96595 -0.71289,3.00195c-0.117,0.54 0.22563,1.07245 0.76563,1.18945c0.071,0.016 0.14289,0.02148 0.21289,0.02148c0.46,0 0.87456,-0.31811 0.97656,-0.78711c0.219,-1.009 0.44836,-1.98383 0.69336,-2.92383c0.139,-0.533 -0.18084,-1.07875 -0.71484,-1.21875c-0.13225,-0.0345 -0.2663,-0.04034 -0.39453,-0.02148z"></path></g></g></g></svg>