<svg xmlns="http://www.w3.org/2000/svg" xmlns:xlink="http://www.w3.org/1999/xlink" viewBox="0,0,256,256" width="42px" height="42px"><g transform="translate(20.48,20.48) scale(0.84,0.84)"><g fill-opacity="0" fill="#1508e3" fill-rule="nonzero" stroke="none" stroke-width="1" stroke-linecap="butt" stroke-linejoin="miter" stroke-miterlimit="10" stroke-dasharray="" stroke-dashoffset="0" font-family="none" font-weight="none" font-size="none" text-anchor="none" style="mix-blend-mode: normal"><path d="M-24.38095,280.38095v-304.7619h304.7619v304.7619z" id="bgRectangle"></path></g><g fill="#ffffff" fill-rule="nonzero" stroke="none" stroke-width="1" stroke-linecap="butt" stroke-linejoin="miter" stroke-miterlimit="10" stroke-dasharray="" stroke-dashoffset="0" font-family="none" font-weight="none" font-size="none" text-anchor="none" style="mix-blend-mode: normal"><g transform="scale(4,4)"><path d="M13,6c-3.85179,0 -7,3.14821 -7,7v38c0,3.85179 3.14821,7 7,7h38c3.85179,0 7,-3.14821 7,-7v-38c0,-3.85179 -3.14821,-7 -7,-7zM13,8h38c2.76821,0 5,2.23179 5,5v38c0,2.76821 -2.23179,5 -5,5h-38c-2.76821,0 -5,-2.23179 -5,-5v-38c0,-2.76821 2.23179,-5 5,-5zM42.97461,9.67969c-0.36535,0.01367 -0.69413,0.22562 -0.85742,0.55273l-0.91797,1.77734c-0.16411,0.31751 -0.14633,0.69845 0.04665,0.99929c0.19298,0.30084 0.53181,0.47584 0.88883,0.45907c0.35702,-0.01678 0.67795,-0.22278 0.84187,-0.54039l0.91797,-1.77734c0.16881,-0.31592 0.15577,-0.698 -0.03418,-1.00168c-0.18995,-0.30368 -0.5278,-0.48258 -0.88574,-0.46903zM47.12695,12.38867c-0.2942,0.00949 -0.56928,0.1481 -0.75195,0.37891l-1.26562,1.54883c-0.22848,0.27643 -0.29145,0.65405 -0.16504,0.98966c0.12641,0.33562 0.42285,0.57785 0.77693,0.63487c0.35407,0.05701 0.71157,-0.07993 0.93694,-0.3589l1.26563,-1.55078c0.25348,-0.302 0.30586,-0.72474 0.13377,-1.07948c-0.1721,-0.35474 -0.53655,-0.57526 -0.93064,-0.5631zM32,13c-2.20277,0 -4.31913,0.38204 -6.28906,1.07227c-0.23166,-0.04227 -0.46769,-0.07227 -0.71094,-0.07227h-11c-2.19733,0 -4,1.80267 -4,4v7c0,1.84359 1.29364,3.34052 3,3.79688v2.27148v0.93164c0.00029,0.03328 0.00225,0.06652 0.00586,0.09961c0.05342,10.24365 8.24219,18.56819 18.42578,18.87109c0.00267,0.00027 0.00514,0.00169 0.00781,0.00195c0.18782,0.00551 0.37141,0.02734 0.56055,0.02734c2.19865,0 4.30987,-0.38529 6.27734,-1.07422c0.23528,0.04365 0.47538,0.07422 0.72266,0.07422h5.58594l3.3418,3.3418c0.53704,0.53704 1.34603,0.64536 1.96094,0.39063c0.61491,-0.25474 1.11133,-0.90457 1.11133,-1.66406v-2.27148c1.70636,-0.45635 3,-1.95328 3,-3.79687v-7c0,-1.94007 -1.40662,-3.56817 -3.24805,-3.92383c0.16338,-1.0019 0.24805,-2.02894 0.24805,-3.07617c0,-10.29232 -8.21879,-18.67288 -18.43945,-18.97266c-0.18504,-0.01831 -0.37143,-0.02734 -0.56055,-0.02734zM31,15.14258v7.82227c-0.67845,-0.02601 -1.34516,-0.07786 -2,-0.1543v-4.81055c0,-0.49773 -0.10286,-0.97124 -0.27148,-1.41211c0.73992,-0.73201 1.49893,-1.22902 2.27148,-1.44531zM33,15.16016c1.61178,0.46126 3.19439,2.00977 4.46875,4.55859c0.36852,0.73708 0.70407,1.55331 1.00391,2.42773c-1.70123,0.45913 -3.5412,0.74398 -5.47266,0.81836zM37.32617,15.86133c2.48584,0.81805 4.71571,2.18766 6.54492,3.97266c-1.03812,0.65883 -2.20728,1.23475 -3.48633,1.70898c-0.33162,-0.96955 -0.70779,-1.8804 -1.12695,-2.71875c-0.5603,-1.12065 -1.21268,-2.11217 -1.93164,-2.96289zM50.63867,15.88672c-0.22542,0.0059 -0.44222,0.0878 -0.61523,0.23242l-1.55664,1.25781c-0.42932,0.34787 -0.49534,0.97791 -0.14746,1.40723c0.34787,0.42932 0.97791,0.49534 1.40723,0.14746l1.55469,-1.25781c0.33962,-0.266 0.4704,-0.71979 0.32444,-1.12573c-0.14596,-0.40594 -0.53577,-0.67255 -0.96702,-0.66138zM14,16h11c1.11667,0 2,0.88333 2,2v7c0,1.11667 -0.88333,2 -2,2h-6c-0.2652,0.00005 -0.51952,0.10543 -0.70703,0.29297l-3.29297,3.29297v-2.58594c-0.00006,-0.55226 -0.44774,-0.99994 -1,-1c-1.11667,0 -2,-0.88333 -2,-2v-7c0,-1.11667 0.88333,-2 2,-2zM53.33789,20.04297c-0.15752,0.00298 -0.31211,0.04313 -0.45117,0.11719l-1.7793,0.91406c-0.31792,0.16324 -0.52458,0.4837 -0.54212,0.84065c-0.01754,0.35695 0.1567,0.69613 0.45709,0.88975c0.30038,0.19362 0.68125,0.21226 0.9991,0.04889l1.7793,-0.91406c0.41991,-0.20753 0.63953,-0.67869 0.52847,-1.13372c-0.11106,-0.45503 -0.52306,-0.77203 -0.99136,-0.76276zM45.23047,21.32813c2.15786,2.67341 3.5063,6.01649 3.71875,9.67188h-6.97461c-0.07161,-2.69726 -0.42434,-5.24495 -1.01953,-7.5332c1.56851,-0.572 3.00136,-1.29303 4.27539,-2.13867zM39.03906,24.07227c0.53346,2.08786 0.86408,4.43511 0.93555,6.92773h-6.97461v-6.03711c2.12322,-0.07467 4.15238,-0.37877 6.03906,-0.89062zM29,24.82227c0.65661,0.07102 1.32309,0.11646 2,0.14063v6.03711h-6.97266c0.019,-0.67868 0.05677,-1.34518 0.11328,-2h0.85938c2.19733,0 4,-1.80267 4,-4zM19.41406,29h2.7207c-0.05378,0.6565 -0.08917,1.32292 -0.10742,2h-4.61328zM15.05078,33h6.97461c0.07161,2.69726 0.42434,5.24495 1.01953,7.5332c-1.56851,0.572 -3.00136,1.29303 -4.27539,2.13867c-2.15786,-2.67341 -3.5063,-6.01649 -3.71875,-9.67187zM24.02539,33h6.97461v6.03711c-2.12321,0.07467 -4.15238,0.37877 -6.03906,0.89063c-0.53346,-2.08786 -0.86408,-4.43511 -0.93555,-6.92773zM33,33h6.97266c-0.01929,0.67872 -0.05648,1.34518 -0.11328,2h-0.85937c-2.19733,0 -4,1.80267 -4,4v0.17969c-0.65658,-0.07095 -1.32288,-0.11845 -2,-0.14258zM41.97266,33h6.97461c-0.03945,0.67873 -0.11571,1.34586 -0.23242,2h-6.84961c0.05351,-0.65651 0.08942,-1.32283 0.10742,-2zM39,37h11c1.11667,0 2,0.88333 2,2v7c0,1.11667 -0.88333,2 -2,2c-0.55226,0.00006 -0.99994,0.44774 -1,1v2.58594l-3.29297,-3.29297c-0.18751,-0.18754 -0.44183,-0.29292 -0.70703,-0.29297h-6c-1.11667,0 -2,-0.88333 -2,-2v-7c0,-1.11667 0.88333,-2 2,-2zM12.42773,41.0293c-0.15686,0.00329 -0.31074,0.04343 -0.44922,0.11719l-1.7793,0.91406c-0.31792,0.16324 -0.52458,0.4837 -0.54212,0.84065c-0.01754,0.35695 0.1567,0.69613 0.45709,0.88975c0.30038,0.19362 0.68125,0.21226 0.9991,0.04889l1.7793,-0.91406c0.42029,-0.20766 0.63993,-0.67939 0.52832,-1.13471c-0.1116,-0.45531 -0.52449,-0.77201 -0.99317,-0.76178zM31,41.03516v7.80469c-1.61179,-0.46126 -3.19439,-2.00977 -4.46875,-4.55859c-0.36852,-0.73708 -0.70407,-1.55331 -1.00391,-2.42773c1.70123,-0.45913 3.5412,-0.74398 5.47266,-0.81836zM33,41.03711c0.67885,0.02581 1.34526,0.07623 2,0.15234v4.81055c0,0.49708 0.10328,0.96977 0.27148,1.41016c-0.73924,0.73125 -1.49872,1.23048 -2.27148,1.44727zM23.61523,42.45703c0.33162,0.96955 0.70779,1.8804 1.12695,2.71875c0.5603,1.12065 1.21268,2.11217 1.93164,2.96289c-2.48584,-0.81805 -4.71571,-2.18766 -6.54492,-3.97266c1.03812,-0.65883 2.20728,-1.23475 3.48633,-1.70898zM14.88867,44.83594c-0.22542,0.0059 -0.44222,0.0878 -0.61523,0.23242l-1.55469,1.25781c-0.28613,0.22201 -0.42988,0.58135 -0.37581,0.93945c0.05407,0.3581 0.2975,0.65898 0.63641,0.78662c0.33892,0.12764 0.72036,0.06208 0.99721,-0.17139l1.55664,-1.25781c0.33995,-0.26621 0.47067,-0.72053 0.32418,-1.1267c-0.14649,-0.40617 -0.5371,-0.67247 -0.96871,-0.66041zM18.09375,48.04102c-0.29387,0.00901 -0.5689,0.14688 -0.75195,0.37695l-1.26562,1.55078c-0.24118,0.27502 -0.31298,0.65977 -0.18721,1.00326c0.12577,0.34349 0.42903,0.59092 0.79077,0.64518c0.36174,0.05426 0.72425,-0.0933 0.94527,-0.38477l1.26563,-1.54883c0.25348,-0.302 0.30586,-0.72474 0.13377,-1.07948c-0.1721,-0.35474 -0.53655,-0.57526 -0.93064,-0.5631zM21.88086,50.51953c-0.36535,0.01367 -0.69413,0.22562 -0.85742,0.55273l-0.91797,1.77734c-0.16406,0.3175 -0.14625,0.69841 0.04672,0.99922c0.19297,0.30081 0.53178,0.47579 0.88877,0.45903c0.35699,-0.01676 0.67791,-0.22272 0.84185,-0.54028l0.91797,-1.77734c0.16881,-0.31592 0.15577,-0.698 -0.03418,-1.00167c-0.18995,-0.30368 -0.5278,-0.48258 -0.88574,-0.46903z"></path></g></g></g></svg>