<svg xmlns="http://www.w3.org/2000/svg" xmlns:xlink="http://www.w3.org/1999/xlink" viewBox="0,0,256,256" width="42px" height="42px"><g transform="translate(21.76,21.76) scale(0.83,0.83)"><g fill-opacity="0" fill="#1508e3" fill-rule="nonzero" stroke="none" stroke-width="1" stroke-linecap="butt" stroke-linejoin="miter" stroke-miterlimit="10" stroke-dasharray="" stroke-dashoffset="0" font-family="none" font-weight="none" font-size="none" text-anchor="none" style="mix-blend-mode: normal"><path d="M-26.21687,282.21687v-308.43373h308.43373v308.43373z" id="bgRectangle"></path></g><g fill="#ffffff" fill-rule="nonzero" stroke="none" stroke-width="1" stroke-linecap="butt" stroke-linejoin="miter" stroke-miterlimit="10" stroke-dasharray="" stroke-dashoffset="0" font-family="none" font-weight="none" font-size="none" text-anchor="none" style="mix-blend-mode: normal"><g transform="scale(4,4)"><path d="M32,2c-2.57,0.011 -5.09255,0.701 -7.31055,2c-3.69,0.14 -6.26945,2.76039 -6.68945,6.90039c-0.185,1.865 -0.14014,3.74561 0.13086,5.59961c0.054,0.331 0.08384,0.665 0.08984,1c0,0.187 -0.02984,0.37355 -0.08984,0.56055c-0.148,0.004 -0.29741,0.02259 -0.44141,0.05859c-1.65,0.44 -2.33961,2.85133 -1.59961,5.61133c0.54,2 1.66086,3.5 2.88086,4c0.623,1.858 1.47883,3.62753 2.54883,5.26953l-0.00195,0.00195c0.05322,0.10784 0.13808,0.23815 0.21875,0.36523l-13.44336,6.02148c-3.823,1.809 -6.29297,5.71145 -6.29297,9.93945v7.67188c0,1.654 1.346,3 3,3h54c1.654,0 3,-1.346 3,-3v-7.67187c0,-4.228 -2.46855,-8.13022 -6.31055,-9.94922l-13.44922,-6.02344c0.08877,-0.13191 0.24023,-0.35547 0.24023,-0.35547c1.059,-1.643 1.90553,-3.41353 2.51953,-5.26953c1.23,-0.46 2.35086,-2 2.88086,-4c0.74,-2.75 -0.00156,-5.16133 -1.60156,-5.61133c-0.141,-0.036 -0.28469,-0.05459 -0.42969,-0.05859c-0.172,-1.179 -0.47992,-2.33441 -0.91992,-3.44141v-0.10937c0.474,0.057 0.93886,0.17737 1.38086,0.35938c0.51,0.212 1.09464,-0.02906 1.30664,-0.53906c0.079,-0.19 0.09673,-0.39961 0.05273,-0.59961c-1.67,-7.32 -7.10992,-11.73047 -14.66992,-11.73047zM32,4h1c6.07,0 10.45,3.10008 12.25,8.58008c-0.673,-0.131 -1.37039,0.04547 -1.90039,0.48047c-0.576,0.627 -0.69206,1.54883 -0.28906,2.29883c0.533,1.294 0.83839,2.67231 0.90039,4.07031c0.028,0.552 0.49783,0.97722 1.04883,0.94922c0.174,-0.009 0.34228,-0.0632 0.48828,-0.1582c0.08,-0.06 0.17348,-0.10209 0.27148,-0.12109c0.241,0.08 0.67969,1.30039 0.17969,3.15039c-0.5,1.85 -1.43852,2.61914 -1.72852,2.61914c-0.459,-0.018 -0.872,0.2797 -1,0.7207c-1.63,5.67 -6.0407,11.41016 -11.2207,11.41016c-5.18,0 -9.5893,-5.74039 -11.2793,-11.40039c-0.123,-0.423 -0.51017,-0.71475 -0.95117,-0.71875h-0.01953c-0.29,0 -1.24047,-0.78109 -1.73047,-2.62109c-0.49,-1.84 -0.05031,-3.09039 0.17969,-3.15039c0.099,0.017 0.19248,0.05909 0.27148,0.12109c0.468,0.293 1.08395,0.15159 1.37695,-0.31641c0.091,-0.146 0.14334,-0.31237 0.15234,-0.48437c0.024,-0.516 0.08092,-1.03006 0.16992,-1.53906c0.052,-0.548 0.02492,-1.10063 -0.08008,-1.64062c-0.239,-1.707 -0.26884,-3.43639 -0.08984,-5.15039c0.31,-3.19 2.19,-5.09961 5,-5.09961c0.216,0 0.42661,-0.06922 0.59961,-0.19922c1.923,-1.187 4.14039,-1.81078 6.40039,-1.80078zM26.17188,10.125c-0.58968,0.05398 -1.14719,0.36828 -1.49219,0.89453l-1.59961,2.42969c-0.296,0.466 -0.15741,1.08486 0.30859,1.38086c0.455,0.289 1.05733,0.1657 1.36133,-0.2793l1.59961,-2.43164l1.57031,0.76172c2.864,1.39 6.00545,2.11414 9.18945,2.11914h2.55078c0.552,0 1,-0.448 1,-1c0,-0.552 -0.448,-1 -1,-1h-2.55078c-2.883,-0.004 -5.72731,-0.66092 -8.32031,-1.91992l-1.55859,-0.75977c-0.33938,-0.16575 -0.70479,-0.2277 -1.05859,-0.19531zM22.97461,35.00195c2.42514,2.93434 5.55469,4.99805 9.02539,4.99805c3.47276,0 6.60354,-2.06723 9.0293,-4.99609l13.82227,6.19141c3.127,1.481 5.14844,4.67281 5.14844,8.13281v7.67188c0,0.551 -0.449,1 -1,1h-54c-0.551,0 -1,-0.449 -1,-1v-7.67187c0,-3.457 2.01667,-6.64591 5.13867,-8.12891zM7,52c-0.552,0 -1,0.448 -1,1v2c0,0.552 0.448,1 1,1c0.552,0 1,-0.448 1,-1v-2c0,-0.552 -0.448,-1 -1,-1zM12,52c-0.552,0 -1,0.448 -1,1v2c0,0.552 0.448,1 1,1c0.552,0 1,-0.448 1,-1v-2c0,-0.552 -0.448,-1 -1,-1zM17,52c-0.552,0 -1,0.448 -1,1v2c0,0.552 0.448,1 1,1c0.552,0 1,-0.448 1,-1v-2c0,-0.552 -0.448,-1 -1,-1zM22,52c-0.552,0 -1,0.448 -1,1v2c0,0.552 0.448,1 1,1c0.552,0 1,-0.448 1,-1v-2c0,-0.552 -0.448,-1 -1,-1zM27,52c-0.552,0 -1,0.448 -1,1v2c0,0.552 0.448,1 1,1c0.552,0 1,-0.448 1,-1v-2c0,-0.552 -0.448,-1 -1,-1zM32,52c-0.552,0 -1,0.448 -1,1v2c0,0.552 0.448,1 1,1c0.552,0 1,-0.448 1,-1v-2c0,-0.552 -0.448,-1 -1,-1zM37,52c-0.552,0 -1,0.448 -1,1v2c0,0.552 0.448,1 1,1c0.552,0 1,-0.448 1,-1v-2c0,-0.552 -0.448,-1 -1,-1zM42,52c-0.552,0 -1,0.448 -1,1v2c0,0.552 0.448,1 1,1c0.552,0 1,-0.448 1,-1v-2c0,-0.552 -0.448,-1 -1,-1zM47,52c-0.552,0 -1,0.448 -1,1v2c0,0.552 0.448,1 1,1c0.552,0 1,-0.448 1,-1v-2c0,-0.552 -0.448,-1 -1,-1zM52,52c-0.552,0 -1,0.448 -1,1v2c0,0.552 0.448,1 1,1c0.552,0 1,-0.448 1,-1v-2c0,-0.552 -0.448,-1 -1,-1zM57,52c-0.552,0 -1,0.448 -1,1v2c0,0.552 0.448,1 1,1c0.552,0 1,-0.448 1,-1v-2c0,-0.552 -0.448,-1 -1,-1z"></path></g></g></g></svg>